{"title":"Theri (2016) AP DVDRip 1CD MP4 TAMiL AAC 5.1-Team TMR","uid":14880594,"size":733428316,"categoryP":"video","categoryS":"movies","magnet":"?xt=urn:btih:51f51e4808ad78c47224e69a883a325713b3b2e0&amp;dn=Theri+%282016%29+AP+DVDRip+1CD+MP4+TAMiL+AAC+5.1-Team+TMR&amp;tr=udp%3A%2F%2Ftracker.leechers-paradise.org%3A6969&amp;tr=udp%3A%2F%2Fzer0day.ch%3A1337&amp;tr=udp%3A%2F%2Fopen.demonii.com%3A1337&amp;tr=udp%3A%2F%2Ftracker.coppersurfer.tk%3A6969&amp;tr=udp%3A%2F%2Fexodus.desync.com%3A6969","seeders":1,"leechers":0,"uploader":"CDRiPD","files":2,"time":1465679058,"description":"Theri (2016) AP DVDRip 1CD MP4 TAMiL AAC 5.1-Team TMR\r\n\r\n\r\n\r\nFormat                                   : MPEG-4\r\nFile size                                : 699 MiB\r\nDuration                                 : 2h 30mn\r\nOverall bit rate mode                    : Variable\r\nOverall bit rate                         : 651 Kbps\r\n\r\nVideo\r\nFormat                                   : AVC\r\nFormat/Info                              : Advanced Video Codec\r\nFormat profile                           :   \r\nFormat settings, CABAC                   : Yes\r\nFormat settings, ReFrames                : 3 frames\r\nCodec ID                                 : avc1\r\nCodec ID/Info                            : Advanced Video Coding\r\nDuration                                 : 2h 30mn\r\nBit rate                                 : 545 Kbps\r\nMaximum bit rate                         : 2 993 Kbps\r\nWidth                                    : 688 pixels\r\nHeight                                   : 296 pixels\r\nDisplay aspect ratio                     : 2.35:1\r\nFrame rate mode                          : Constant\r\nFrame rate                               : 25.000 fps\r\nColor space                              : YUV\r\nChroma subsampling                       : 4:2:0\r\nBit depth                                : 8 bits\r\nScan type                                : Progressive\r\nBits/(Pixel*Frame)                       : 0.107\r\nStream size                              : 585 MiB (84%)\r\nWriting library                          : x264 core 148 r2638 7599210\r\nAudio\r\nFormat                                   : AAC\r\nFormat/Info                              : Advanced Audio Codec\r\nFormat profile                           : HE-AAC / LC\r\nCodec ID                                 : 40\r\nDuration                                 : 2h 15mn\r\nBit rate mode                            : Variable\r\nBit rate                                 : 115 Kbps\r\nMaximum bit rate                         : 137 Kbps\r\nChannel(s)                               : 6 channels\r\nChannel positions                        : Front: L C R, Side: L R, LFE\r\nSampling rate                            : 48.0 KHz / 24.0 KHz\r\nCompression mode                         : Lossy\r\nStream size                              : 111 MiB (16%)\r\nLanguage                                 : Tamil\r\n\r\n\r\n\r\nScreen Shots:\r\n\r\n \nhttps://ititli.com/XyN \nhttps://ititli.com/XyB \nhttps://ititli.com/Xy5 \nhttps://ititli.com/XyJ \nhttps://ititli.com/XyF \nhttps://ititli.com/XyC \nhttps://ititli.com/Xy7 \nhttps://ititli.com/Xyx \nhttps://ititli.com/Xyl \nhttps://ititli.com/XyA \nhttps://ititli.com/Xy0 \nhttps://ititli.com/Xyd \nhttps://ititli.com/XyL \nhttps://ititli.com/Xyt","torrent":{"xt":"urn:btih:51f51e4808ad78c47224e69a883a325713b3b2e0","amp;dn":"Theri+%282016%29+AP+DVDRip+1CD+MP4+TAMiL+AAC+5.1-Team+TMR","amp;tr":["udp%3A%2F%2Ftracker.leechers-paradise.org%3A6969","udp%3A%2F%2Fzer0day.ch%3A1337","udp%3A%2F%2Fopen.demonii.com%3A1337","udp%3A%2F%2Ftracker.coppersurfer.tk%3A6969","udp%3A%2F%2Fexodus.desync.com%3A6969"],"infoHash":"51f51e4808ad78c47224e69a883a325713b3b2e0","infoHashBuffer":{"type":"Buffer","data":[81,245,30,72,8,173,120,196,114,36,230,154,136,58,50,87,19,179,178,224]},"announce":[],"urlList":[]}}